<svg width="136" height="24" viewBox="0 0 136 24" fill="none" xmlns="http://www.w3.org/2000/svg">
<path d="M12.0008 18.275L7.8508 20.775C7.66747 20.8917 7.4758 20.9417 7.2758 20.925C7.0758 20.9083 6.9008 20.8417 6.7508 20.725C6.6008 20.6083 6.48414 20.4627 6.4008 20.288C6.31747 20.1127 6.3008 19.9167 6.3508 19.7L7.4508 14.975L3.7758 11.8C3.60914 11.65 3.50514 11.479 3.4638 11.287C3.4218 11.0957 3.43414 10.9083 3.5008 10.725C3.56747 10.5417 3.66747 10.3917 3.8008 10.275C3.93414 10.1583 4.11747 10.0833 4.3508 10.05L9.2008 9.62501L11.0758 5.17501C11.1591 4.97501 11.2885 4.82501 11.4638 4.72501C11.6385 4.62501 11.8175 4.57501 12.0008 4.57501C12.1841 4.57501 12.3635 4.62501 12.5388 4.72501C12.7135 4.82501 12.8425 4.97501 12.9258 5.17501L14.8008 9.62501L19.6508 10.05C19.8841 10.0833 20.0675 10.1583 20.2008 10.275C20.3341 10.3917 20.4341 10.5417 20.5008 10.725C20.5675 10.9083 20.5801 11.0957 20.5388 11.287C20.4968 11.479 20.3925 11.65 20.2258 11.8L16.5508 14.975L17.6508 19.7C17.7008 19.9167 17.6841 20.1127 17.6008 20.288C17.5175 20.4627 17.4008 20.6083 17.2508 20.725C17.1008 20.8417 16.9258 20.9083 16.7258 20.925C16.5258 20.9417 16.3341 20.8917 16.1508 20.775L12.0008 18.275Z" fill="#F2C94C"/>
<path d="M40.0008 18.275L35.8508 20.775C35.6675 20.8917 35.4758 20.9417 35.2758 20.925C35.0758 20.9083 34.9008 20.8417 34.7508 20.725C34.6008 20.6083 34.4841 20.4627 34.4008 20.288C34.3175 20.1127 34.3008 19.9167 34.3508 19.7L35.4508 14.975L31.7758 11.8C31.6091 11.65 31.5051 11.479 31.4638 11.287C31.4218 11.0957 31.4341 10.9083 31.5008 10.725C31.5675 10.5417 31.6675 10.3917 31.8008 10.275C31.9341 10.1583 32.1175 10.0833 32.3508 10.05L37.2008 9.62501L39.0758 5.17501C39.1591 4.97501 39.2885 4.82501 39.4638 4.72501C39.6385 4.62501 39.8175 4.57501 40.0008 4.57501C40.1841 4.57501 40.3635 4.62501 40.5388 4.72501C40.7135 4.82501 40.8425 4.97501 40.9258 5.17501L42.8008 9.62501L47.6508 10.05C47.8841 10.0833 48.0675 10.1583 48.2008 10.275C48.3341 10.3917 48.4341 10.5417 48.5008 10.725C48.5675 10.9083 48.5801 11.0957 48.5388 11.287C48.4968 11.479 48.3925 11.65 48.2258 11.8L44.5508 14.975L45.6508 19.7C45.7008 19.9167 45.6841 20.1127 45.6008 20.288C45.5175 20.4627 45.4008 20.6083 45.2508 20.725C45.1008 20.8417 44.9258 20.9083 44.7258 20.925C44.5258 20.9417 44.3341 20.8917 44.1508 20.775L40.0008 18.275Z" fill="#F2C94C"/>
<path d="M68.0008 18.275L63.8508 20.775C63.6675 20.8917 63.4758 20.9417 63.2758 20.925C63.0758 20.9083 62.9008 20.8417 62.7508 20.725C62.6008 20.6083 62.4841 20.4627 62.4008 20.288C62.3175 20.1127 62.3008 19.9167 62.3508 19.7L63.4508 14.975L59.7758 11.8C59.6091 11.65 59.5051 11.479 59.4638 11.287C59.4218 11.0957 59.4341 10.9083 59.5008 10.725C59.5675 10.5417 59.6675 10.3917 59.8008 10.275C59.9341 10.1583 60.1175 10.0833 60.3508 10.05L65.2008 9.62501L67.0758 5.17501C67.1591 4.97501 67.2885 4.82501 67.4638 4.72501C67.6385 4.62501 67.8175 4.57501 68.0008 4.57501C68.1841 4.57501 68.3635 4.62501 68.5388 4.72501C68.7135 4.82501 68.8425 4.97501 68.9258 5.17501L70.8008 9.62501L75.6508 10.05C75.8841 10.0833 76.0675 10.1583 76.2008 10.275C76.3341 10.3917 76.4341 10.5417 76.5008 10.725C76.5675 10.9083 76.5801 11.0957 76.5388 11.287C76.4968 11.479 76.3925 11.65 76.2258 11.8L72.5508 14.975L73.6508 19.7C73.7008 19.9167 73.6841 20.1127 73.6008 20.288C73.5175 20.4627 73.4008 20.6083 73.2508 20.725C73.1008 20.8417 72.9258 20.9083 72.7258 20.925C72.5258 20.9417 72.3341 20.8917 72.1508 20.775L68.0008 18.275Z" fill="#F2C94C"/>
<path d="M96.0008 18.275L91.8508 20.775C91.6675 20.8917 91.4758 20.9417 91.2758 20.925C91.0758 20.9083 90.9008 20.8417 90.7508 20.725C90.6008 20.6083 90.4841 20.4627 90.4008 20.288C90.3175 20.1127 90.3008 19.9167 90.3508 19.7L91.4508 14.975L87.7758 11.8C87.6091 11.65 87.5051 11.479 87.4638 11.287C87.4218 11.0957 87.4341 10.9083 87.5008 10.725C87.5675 10.5417 87.6675 10.3917 87.8008 10.275C87.9341 10.1583 88.1175 10.0833 88.3508 10.05L93.2008 9.62501L95.0758 5.17501C95.1591 4.97501 95.2885 4.82501 95.4638 4.72501C95.6385 4.62501 95.8175 4.57501 96.0008 4.57501C96.1841 4.57501 96.3635 4.62501 96.5388 4.72501C96.7135 4.82501 96.8425 4.97501 96.9258 5.17501L98.8008 9.62501L103.651 10.05C103.884 10.0833 104.067 10.1583 104.201 10.275C104.334 10.3917 104.434 10.5417 104.501 10.725C104.567 10.9083 104.58 11.0957 104.539 11.287C104.497 11.479 104.392 11.65 104.226 11.8L100.551 14.975L101.651 19.7C101.701 19.9167 101.684 20.1127 101.601 20.288C101.517 20.4627 101.401 20.6083 101.251 20.725C101.101 20.8417 100.926 20.9083 100.726 20.925C100.526 20.9417 100.334 20.8917 100.151 20.775L96.0008 18.275Z" fill="#F2C94C"/>
<path d="M124.001 18.275L119.851 20.775C119.667 20.8917 119.476 20.9417 119.276 20.925C119.076 20.9083 118.901 20.8417 118.751 20.725C118.601 20.6083 118.484 20.4627 118.401 20.288C118.317 20.1127 118.301 19.9167 118.351 19.7L119.451 14.975L115.776 11.8C115.609 11.65 115.505 11.479 115.464 11.287C115.422 11.0957 115.434 10.9083 115.501 10.725C115.567 10.5417 115.667 10.3917 115.801 10.275C115.934 10.1583 116.117 10.0833 116.351 10.05L121.201 9.62501L123.076 5.17501C123.159 4.97501 123.288 4.82501 123.464 4.72501C123.638 4.62501 123.817 4.57501 124.001 4.57501C124.184 4.57501 124.363 4.62501 124.539 4.72501C124.713 4.82501 124.842 4.97501 124.926 5.17501L126.801 9.62501L131.651 10.05C131.884 10.0833 132.067 10.1583 132.201 10.275C132.334 10.3917 132.434 10.5417 132.501 10.725C132.567 10.9083 132.58 11.0957 132.539 11.287C132.497 11.479 132.392 11.65 132.226 11.8L128.551 14.975L129.651 19.7C129.701 19.9167 129.684 20.1127 129.601 20.288C129.517 20.4627 129.401 20.6083 129.251 20.725C129.101 20.8417 128.926 20.9083 128.726 20.925C128.526 20.9417 128.334 20.8917 128.151 20.775L124.001 18.275Z" fill="#F2C94C"/>
</svg>
